<svg width="14" height="14" viewBox="0 0 14 14" fill="none" xmlns="http://www.w3.org/2000/svg">
<path fill-rule="evenodd" clip-rule="evenodd" d="M3.00016 3.00001H4.3335V2.33334H9.66683V3.00001H11.0002V2.33334H12.3335V4.33334H1.66683V2.33334H3.00016V3.00001ZM1.66683 5.66668V12.3333H12.3335V5.66668H1.66683ZM4.3335 1.00001H9.66683V0.333344H11.0002V1.00001H12.3335C13.0699 1.00001 13.6668 1.59696 13.6668 2.33334V12.3333C13.6668 13.0697 13.0699 13.6667 12.3335 13.6667H1.66683C0.93045 13.6667 0.333496 13.0697 0.333496 12.3333V2.33334C0.333496 1.59696 0.93045 1.00001 1.66683 1.00001H3.00016V0.333344H4.3335V1.00001Z" fill="#6B6B6B"/>
</svg>
