<svg width="14" height="14" viewBox="0 0 14 14" fill="none" xmlns="http://www.w3.org/2000/svg">
<path fill-rule="evenodd" clip-rule="evenodd" d="M4.33333 3.00004H2.99999V2.33337H1.66666V4.33337H12.3333V2.33337H11V3.00004H9.66666V2.33337H4.33333V3.00004ZM12.3333 5.66671H1.66666V12.3334H12.3333V5.66671ZM9.66666 1.00004H4.33333V0.333374H2.99999V1.00004H1.66666C0.930282 1.00004 0.333328 1.59699 0.333328 2.33337V12.3334C0.333328 13.0698 0.930282 13.6667 1.66666 13.6667H12.3333C13.0697 13.6667 13.6667 13.0698 13.6667 12.3334V2.33337C13.6667 1.59699 13.0697 1.00004 12.3333 1.00004H11V0.333374H9.66666V1.00004ZM4.99999 8.33337H3.66666V7.00004H4.99999V8.33337ZM6.33333 8.33337H7.66666V7.00004H6.33333V8.33337ZM9 8.33337V7.00004H10.3333V8.33337H9ZM3.66666 11H4.99999V9.66671H3.66666V11ZM7.66666 11H6.33333V9.66671H7.66666V11Z" fill="#6B6B6B"/>
</svg>
