<svg width="40" height="48" viewBox="0 0 40 48" fill="none" xmlns="http://www.w3.org/2000/svg">
<path d="M34.1071 35.8594C33.6905 36.4844 33.2738 37.0312 32.8571 37.5L19.9554 48L7.14286 37.5C6.72619 37.0312 6.30952 36.4844 5.89286 35.8594C4.04762 33.9219 2.60417 31.6719 1.5625 29.1094C0.520833 26.5469 0 23.8438 0 21C0 18.1562 0.528274 15.4375 1.58482 12.8438C2.64137 10.25 4.0625 8.01562 5.84821 6.14062C7.63393 4.26562 9.7619 2.77344 12.2321 1.66406C14.7024 0.554688 17.2917 0 20 0C22.7083 0 25.2976 0.554688 27.7679 1.66406C30.2381 2.77344 32.3661 4.26562 34.1518 6.14062C35.9375 8.01562 37.3586 10.25 38.4152 12.8438C39.4717 15.4375 40 18.1562 40 21C40 23.8438 39.4792 26.5469 38.4375 29.1094C37.3958 31.6719 35.9524 33.9219 34.1071 35.8594ZM20 6C17.4107 6 15.0223 6.67188 12.8348 8.01562C10.6473 9.35938 8.91369 11.1797 7.63393 13.4766C6.35417 15.7734 5.71429 18.2812 5.71429 21C5.71429 23.7188 6.35417 26.2266 7.63393 28.5234C8.91369 30.8203 10.6473 32.6328 12.8348 33.9609C15.0223 35.2891 17.4107 35.9531 20 35.9531C22.5893 35.9531 24.9777 35.2891 27.1652 33.9609C29.3527 32.6328 31.0863 30.8203 32.3661 28.5234C33.6458 26.2266 34.2857 23.7188 34.2857 21C34.2857 18.2812 33.6458 15.7734 32.3661 13.4766C31.0863 11.1797 29.3527 9.35938 27.1652 8.01562C24.9777 6.67188 22.5893 6 20 6Z" fill="#FFE187"/>
</svg>
